<svg width="94px" height="94px" viewBox="0 0 94 94" version="1.1" xmlns="http://www.w3.org/2000/svg" xmlns:xlink="http://www.w3.org/1999/xlink">
	<circle id="background" fill="#4DC0B5" cx="47" cy="47" r="47"></circle>
	<path d="M43.5464567,37.5102362 C43.5464567,35.4220472 45.2598425,34.6188976 48.0976378,34.6188976 C52.1669291,34.6188976 57.3070866,35.8503937 61.376378,38.0456693 L61.376378,25.4629921 C56.9322835,23.696063 52.5417323,23 48.0976378,23 C37.2283465,23 30,28.6755906 30,38.1527559 C30,52.9307087 50.3464567,50.5748031 50.3464567,56.9464567 C50.3464567,59.4094488 48.2047244,60.2125984 45.2062992,60.2125984 C40.7622047,60.2125984 35.0866142,58.392126 30.5889764,55.9291339 L30.5889764,68.6724409 C35.5685039,70.8141732 40.6015748,71.7244094 45.2062992,71.7244094 C56.3433071,71.7244094 64,66.2094488 64,56.6251969 C63.9464567,40.6692913 43.5464567,43.5070866 43.5464567,37.5102362 Z" id="Shape" fill="#FFFFFF"></path>
</svg>